<svg width="216" height="175" viewBox="0 0 216 175" fill="none" xmlns="http://www.w3.org/2000/svg">
<g clip-path="url(#clip0_218_831)">
<path d="M109.932 107.639C129.295 107.639 144.991 93.5413 144.991 76.1509C144.991 58.7604 129.295 44.6627 109.932 44.6627C90.5695 44.6627 74.873 58.7604 74.873 76.1509C74.873 93.5413 90.5695 107.639 109.932 107.639Z" fill="#A0616A"/>
<path d="M80.9136 114.69L88.2218 97.9154L125.981 92.8102L130.038 129.943L91.8728 130.672L80.9136 114.69Z" fill="#A0616A"/>
<path d="M145.331 81.9607C144.876 83.5979 143.956 87.4961 142.52 87.5153C141.346 87.5307 140.223 70.6189 141.395 67.8215C142.742 64.6079 139.203 60.5427 136.537 58.4558C131.745 54.7037 121.106 62.7606 110.288 59.1107C110.001 59.0142 110.058 59.025 106.642 57.801C96.1307 54.0341 95.5782 53.9254 94.9759 53.8717C89.8803 53.4189 83.6615 57.164 81.1221 61.7303C78.4823 66.4769 80.6879 70.5482 78.2055 82.0316C77.9163 83.3702 77.462 85.2779 76.7472 85.3061C75.4406 85.3572 74.1648 79.0891 73.8306 77.4475C72.4307 70.5693 71.081 63.9379 73.8306 56.4912C74.1306 55.679 75.9791 52.6642 79.6638 46.6679C84.9722 38.0297 87.6421 33.6943 88.4136 32.9154C93.947 27.3265 104.019 22.2281 112.476 24.4019C116.75 25.5006 115.983 27.267 121.225 28.9861C130.567 32.0494 138.686 28.3031 140.183 30.9507C140.976 32.3532 138.757 33.5095 138.725 36.1898C138.67 40.7887 145.146 42.1176 148.933 46.6679C150.969 49.1142 154.454 49.1404 145.331 81.9607Z" fill="#2F2E41"/>
<path d="M188.765 142.403C187.352 143.829 185.886 145.226 184.367 146.59C163.969 164.91 136.847 175 108 175C83.0667 175 59.4244 167.462 40.297 153.587C40.2848 153.58 40.2767 153.573 40.2646 153.562C37.727 151.724 35.2706 149.769 32.8994 147.705C32.944 147.384 32.9928 147.067 33.0455 146.753C33.3785 144.638 33.748 142.622 34.1621 140.766C37.5523 125.552 82.1612 109.58 83.3224 109.164C83.3386 109.16 83.3468 109.157 83.3468 109.157C83.3468 109.157 89.0879 128.163 113.688 127.919C130.445 127.755 127.196 109.157 127.196 109.157C127.196 109.157 127.399 109.193 127.781 109.266C132.621 110.189 166.223 116.818 179.479 125.866C183.519 128.622 186.418 134.494 188.501 141.495C188.59 141.794 188.675 142.1 188.765 142.403Z" fill="#064161"/>
</g>
<defs>
<clipPath id="clip0_218_831">
<rect width="216" height="194" fill="white" transform="translate(0 -19)"/>
</clipPath>
</defs>
</svg>
